<svg width="50" height="51" viewBox="0 0 50 51" fill="none" xmlns="http://www.w3.org/2000/svg">
<circle opacity="0.1" cx="24.8826" cy="25.3821" r="24.8529" fill="#EC9D40"/>
<path fill-rule="evenodd" clip-rule="evenodd" d="M20.3435 20.7241V21.0777H18.9086C18.4811 21.0777 18.1183 21.3912 18.0563 21.8141L17.8473 23.2407C17.4391 26.0266 17.4391 28.857 17.8473 31.6429C18.0302 32.8912 19.0368 33.8562 20.2916 33.9863L20.8928 34.0487C23.5464 34.3239 26.2214 34.3239 28.875 34.0487L29.4762 33.9863C30.731 33.8562 31.7376 32.8912 31.9205 31.6429C32.3287 28.857 32.3287 26.0266 31.9205 23.2407L31.7115 21.8141C31.6495 21.3912 31.2867 21.0777 30.8592 21.0777H29.4243V20.7241C29.4243 18.652 28.0215 16.8428 26.0147 16.3267C25.2729 16.136 24.4949 16.136 23.7531 16.3267C21.7463 16.8428 20.3435 18.652 20.3435 20.7241ZM25.6576 17.7154C25.15 17.5849 24.6177 17.5849 24.1102 17.7154C22.7371 18.0684 21.7773 19.3063 21.7773 20.7241V21.0777H27.9905V20.7241C27.9905 19.3063 27.0307 18.0684 25.6576 17.7154ZM21.7773 22.5115C21.7773 22.1155 21.4563 21.7946 21.0604 21.7946C20.6644 21.7946 20.3435 22.1155 20.3435 22.5115V24.4232C20.3435 24.8192 20.6644 25.1402 21.0604 25.1402C21.4563 25.1402 21.7773 24.8192 21.7773 24.4232V22.5115ZM29.4243 22.5115C29.4243 22.1155 29.1034 21.7946 28.7074 21.7946C28.3115 21.7946 27.9905 22.1155 27.9905 22.5115V24.4232C27.9905 24.8192 28.3115 25.1402 28.7074 25.1402C29.1034 25.1402 29.4243 24.8192 29.4243 24.4232V22.5115Z" fill="#EC9D40"/>
</svg>
