<svg width="50" height="50" viewBox="0 0 50 50" fill="none" xmlns="http://www.w3.org/2000/svg">
<circle opacity="0.1" cx="24.8826" cy="25.1183" r="24.8529" fill="#FD8B8B"/>
<path d="M31.7174 18.6632H18.5142L17.3861 16.6411C17.2595 16.4142 17.0199 16.2735 16.76 16.2735H15.3262C14.9303 16.2735 14.6093 16.5945 14.6093 16.9904C14.6093 17.3864 14.9303 17.7073 15.3262 17.7073H16.339L17.4524 19.7029L20.0199 25.3839L20.0226 25.3897L20.2487 25.8901L17.6708 28.6398C17.4855 28.8375 17.4275 29.1229 17.5209 29.3773C17.6143 29.6317 17.8432 29.8116 18.1125 29.8424L20.4621 30.1109C23.4012 30.4468 26.3689 30.4468 29.3079 30.1109L31.6576 29.8424C32.051 29.7975 32.3334 29.4421 32.2885 29.0487C32.2435 28.6554 31.8882 28.3729 31.4948 28.4179L29.1451 28.6864C26.3143 29.0099 23.4558 29.0099 20.625 28.6864L19.6925 28.5798L21.5845 26.5616C21.6028 26.5421 21.6198 26.5218 21.6355 26.5009L22.3551 26.5946C23.3635 26.7258 24.3828 26.7515 25.3965 26.6713C27.7609 26.4843 29.9522 25.3593 31.482 23.5469L32.0346 22.8923C32.0531 22.8703 32.0704 22.8472 32.0861 22.8232L33.116 21.2537C33.8459 20.1413 33.0479 18.6632 31.7174 18.6632Z" fill="#FD8B8B"/>
<path d="M19.6277 31.3287C18.8358 31.3287 18.1938 31.9706 18.1938 32.7625C18.1938 33.5544 18.8358 34.1963 19.6277 34.1963C20.4195 34.1963 21.0615 33.5544 21.0615 32.7625C21.0615 31.9706 20.4195 31.3287 19.6277 31.3287Z" fill="#FD8B8B"/>
<path d="M28.7086 32.7625C28.7086 31.9706 29.3505 31.3287 30.1424 31.3287C30.9343 31.3287 31.5762 31.9706 31.5762 32.7625C31.5762 33.5544 30.9343 34.1963 30.1424 34.1963C29.3505 34.1963 28.7086 33.5544 28.7086 32.7625Z" fill="#FD8B8B"/>
</svg>
