<svg width="65" height="42" viewBox="0 0 65 42" fill="none" xmlns="http://www.w3.org/2000/svg">
<path d="M0.852844 9.57251C0.852844 4.29332 5.13248 0.0136795 10.4117 0.0136795H55.3381C60.6173 0.0136795 64.897 4.29331 64.897 9.5725V41.1166H10.4117C5.13248 41.1166 0.852844 36.837 0.852844 31.5578V9.57251Z" fill="#EEEEEF"/>
<path d="M15.1385 22.6232V21.262H18.0291V18.5549H19.4361V21.262H22.3267V22.6232H19.4361V25.3455H18.0291V22.6232H15.1385ZM25.429 26.3855V17.5149L23.7008 17.9126V16.7196L26.0714 15.6796H27.1114V26.3855H25.429ZM33.5688 26.5691C32.6002 26.5691 31.7641 26.3396 31.0606 25.8808C30.3673 25.4118 29.832 24.7643 29.4547 23.9385C29.0877 23.1024 28.9041 22.1338 28.9041 21.0326C28.9041 19.9314 29.0877 18.9679 29.4547 18.142C29.832 17.3059 30.3673 16.6585 31.0606 16.1996C31.7641 15.7306 32.6002 15.4961 33.5688 15.4961C34.5375 15.4961 35.3684 15.7306 36.0618 16.1996C36.7551 16.6585 37.2853 17.3059 37.6524 18.142C38.0296 18.9679 38.2183 19.9314 38.2183 21.0326C38.2183 22.1338 38.0296 23.1024 37.6524 23.9385C37.2853 24.7643 36.7551 25.4118 36.0618 25.8808C35.3684 26.3396 34.5375 26.5691 33.5688 26.5691ZM33.5688 25.1161C34.15 25.1161 34.6649 24.953 35.1135 24.6267C35.5724 24.3004 35.9292 23.8314 36.1841 23.2196C36.439 22.6079 36.5665 21.8789 36.5665 21.0326C36.5665 20.1863 36.439 19.4573 36.1841 18.8455C35.9292 18.2338 35.5724 17.7647 35.1135 17.4385C34.6649 17.1122 34.15 16.949 33.5688 16.949C32.9775 16.949 32.4575 17.1122 32.0088 17.4385C31.5602 17.7647 31.2084 18.2338 30.9535 18.8455C30.6986 19.4573 30.5712 20.1863 30.5712 21.0326C30.5712 21.8789 30.6986 22.6079 30.9535 23.2196C31.2084 23.8314 31.5602 24.3004 32.0088 24.6267C32.4575 24.953 32.9775 25.1161 33.5688 25.1161ZM42.0899 20.7879C41.6107 20.7879 41.1774 20.6808 40.7899 20.4667C40.4127 20.2526 40.1119 19.9518 39.8876 19.5643C39.6633 19.1667 39.5511 18.6926 39.5511 18.142C39.5511 17.6016 39.6633 17.1377 39.8876 16.7502C40.1119 16.3526 40.4178 16.0467 40.8052 15.8326C41.1927 15.6185 41.626 15.5114 42.1052 15.5114C42.5742 15.5114 42.9974 15.6185 43.3746 15.8326C43.7621 16.0467 44.068 16.3526 44.2923 16.7502C44.5166 17.1377 44.6288 17.6016 44.6288 18.142C44.6288 18.6926 44.5166 19.1667 44.2923 19.5643C44.068 19.9518 43.7621 20.2526 43.3746 20.4667C42.9974 20.6808 42.5691 20.7879 42.0899 20.7879ZM41.3252 26.3855L47.4582 15.6796H49.0488L42.9311 26.3855H41.3252ZM42.0899 19.6255C42.4162 19.6255 42.6966 19.5032 42.9311 19.2585C43.1758 19.0036 43.2982 18.6314 43.2982 18.142C43.2982 17.6526 43.1809 17.2855 42.9464 17.0408C42.7119 16.7859 42.4264 16.6585 42.0899 16.6585C41.7637 16.6585 41.4782 16.7859 41.2335 17.0408C40.9888 17.2855 40.8664 17.6526 40.8664 18.142C40.8664 18.6314 40.9837 19.0036 41.2182 19.2585C41.4629 19.5032 41.7535 19.6255 42.0899 19.6255ZM48.3758 26.5691C47.8966 26.5691 47.4633 26.462 47.0758 26.2479C46.6986 26.0338 46.3978 25.733 46.1735 25.3455C45.9491 24.9479 45.837 24.4738 45.837 23.9232C45.837 23.3828 45.9491 22.9138 46.1735 22.5161C46.3978 22.1185 46.7037 21.8126 47.0911 21.5985C47.4786 21.3843 47.9119 21.2773 48.3911 21.2773C48.8601 21.2773 49.2833 21.3843 49.6605 21.5985C50.048 21.8126 50.3539 22.1185 50.5782 22.5161C50.8025 22.9138 50.9146 23.3828 50.9146 23.9232C50.9146 24.4738 50.8025 24.9479 50.5782 25.3455C50.3539 25.733 50.048 26.0338 49.6605 26.2479C49.2833 26.462 48.855 26.5691 48.3758 26.5691ZM48.3758 25.3914C48.7021 25.3914 48.9825 25.2691 49.217 25.0243C49.4617 24.7796 49.5841 24.4126 49.5841 23.9232C49.5841 23.4338 49.4668 23.0667 49.2323 22.822C48.9978 22.5671 48.7123 22.4396 48.3758 22.4396C48.0495 22.4396 47.7641 22.5671 47.5193 22.822C47.2746 23.0667 47.1523 23.4338 47.1523 23.9232C47.1523 24.4126 47.2695 24.7796 47.5041 25.0243C47.7488 25.2691 48.0393 25.3914 48.3758 25.3914Z" fill="#242424"/>
</svg>
